<svg width="62.000000" height="62.000000" viewBox="0 0 62 62" fill="none" xmlns="http://www.w3.org/2000/svg" xmlns:xlink="http://www.w3.org/1999/xlink">
	<desc>
			Created with Pixso.
	</desc>
	<defs/>
	<path id="Combined-Shape" d="M24 0C10.7451 0 0 10.7451 0 24C0 37.2549 10.7451 48 24 48C37.2549 48 48 37.2549 48 24C48 10.7451 37.2549 0 24 0ZM26.5015 25.0542L26.5015 38.1113L21.0991 38.1113L21.0991 25.0547L18.3999 25.0547L18.3999 20.5552L21.0991 20.5552L21.0991 17.8535C21.0991 14.1826 22.623 12 26.9531 12L30.5581 12L30.5581 16.5L28.3047 16.5C26.6191 16.5 26.5076 17.1289 26.5076 18.3027L26.5015 20.5547L30.5835 20.5547L30.106 25.0542L26.5015 25.0542Z" clip-rule="evenodd" fill="#FFFFFF" fill-opacity="1.000000" fill-rule="evenodd"/>
</svg>
