<svg width="62.000000" height="62.000000" viewBox="0 0 62 62" fill="none" xmlns="http://www.w3.org/2000/svg" xmlns:xlink="http://www.w3.org/1999/xlink">
	<desc>
			Created with Pixso.
	</desc>
	<defs/>
	<rect width="62.000000" height="62.000000" fill="#FFFFFF" fill-opacity="0"/>
	<path d="M24 0C10.7451 0 0 10.7451 0 24C0 37.2549 10.7451 48 24 48C37.2549 48 48 37.2549 48 24C48 10.7451 37.2549 0 24 0ZM23.9973 11.2002L24.0012 11.2002C27.4749 11.2002 27.9097 11.2153 29.2747 11.2773C30.6372 11.3398 31.5679 11.5557 32.384 11.8721C33.2266 12.1987 33.9387 12.6362 34.6506 13.3481C35.3625 14.0596 35.8 14.7734 36.1279 15.6157C36.4426 16.4292 36.6587 17.3594 36.7227 18.7222C36.7839 20.0874 36.8 20.5239 36.8 24C36.8 27.4766 36.7839 27.9116 36.7227 29.2769C36.6587 30.6392 36.4426 31.5693 36.1279 32.3838C35.8 33.2251 35.3625 33.9395 34.6506 34.6509C33.9395 35.3628 33.2263 35.8013 32.3848 36.1284C31.5703 36.4448 30.6392 36.6606 29.2764 36.7231C27.9111 36.7852 27.4761 36.8003 23.9995 36.8003C20.5237 36.8003 20.0876 36.7852 18.7222 36.7231C17.3599 36.6606 16.4294 36.4448 15.615 36.1284C14.7737 35.8013 14.0596 35.3628 13.3484 34.6509C12.6365 33.9395 12.1992 33.2251 11.8721 32.3833C11.5557 31.5693 11.3401 30.6392 11.2773 29.2769C11.2156 27.9111 11.2 27.4766 11.2 24C11.2 20.5239 11.2161 20.0874 11.2771 18.7222C11.3384 17.3599 11.5544 16.4292 11.8718 15.6152C12.1997 14.7734 12.637 14.0596 13.3491 13.3481C14.0605 12.6362 14.7747 12.1987 15.6167 11.8721C16.4304 11.5557 17.3606 11.3398 18.7234 11.2773C20.0881 11.2153 20.5247 11.2002 23.9973 11.2002Z" clip-rule="evenodd" fill="#FFFFFF" fill-opacity="1.000000" fill-rule="evenodd"/>
	<path d="M27.5144 17.4448C27.2554 17.4448 27.0156 17.4448 26.7927 17.4453L26.7927 17.4419C24.407 17.4443 23.9495 17.4604 22.7686 17.5137C21.5205 17.5713 20.843 17.7793 20.3918 17.9551C19.7944 18.188 19.3677 18.4653 18.9197 18.9131C18.4717 19.3613 18.1938 19.7876 17.9619 20.3853C17.7866 20.8364 17.5781 21.5137 17.521 22.7617C17.4597 24.1108 17.4475 24.5142 17.4475 27.9326C17.4475 31.3506 17.4597 31.7559 17.521 33.1055C17.5779 34.3535 17.7866 35.0308 17.9619 35.4814C18.1943 36.0791 18.4717 36.5044 18.9197 36.9526C19.3677 37.4004 19.7944 37.6777 20.3918 37.9097C20.8433 38.085 21.5205 38.2935 22.7686 38.3511C24.1179 38.4126 24.5229 38.4258 27.9409 38.4258C31.3586 38.4258 31.7639 38.4126 33.1133 38.3511C34.3613 38.2939 35.0391 38.0859 35.4897 37.9102C36.0874 37.6782 36.5127 37.4009 36.9607 36.9526C37.4087 36.5049 37.6868 36.0796 37.9187 35.4824C38.0938 35.0317 38.3025 34.3545 38.3594 33.1064C38.4209 31.7568 38.4341 31.3516 38.4341 27.9355C38.4341 24.5195 38.4209 24.1143 38.3594 22.7646C38.3027 21.5171 38.0938 20.8394 37.9187 20.3887C37.686 19.7915 37.4087 19.3647 36.9607 18.917C36.5129 18.4688 36.0872 18.1914 35.4897 17.9595C35.0386 17.7842 34.3613 17.5757 33.1133 17.5186C31.7637 17.4575 31.3586 17.4453 27.9409 17.4453C27.7932 17.4453 27.6511 17.4448 27.5144 17.4448ZM34.7734 19.5703C33.9255 19.5703 33.2375 20.2578 33.2375 21.106C33.2375 21.9541 33.9255 22.6421 34.7734 22.6421C35.6216 22.6421 36.3096 21.9541 36.3096 21.106C36.3096 20.2578 35.6216 19.5698 34.7734 19.5698L34.7734 19.5703ZM21.3674 27.9385C21.3674 24.3086 24.3105 21.3652 27.9407 21.3652C31.5708 21.3652 34.5132 24.3086 34.5132 27.9385C34.5132 31.5688 31.571 34.5107 27.9409 34.5107C24.3108 34.5107 21.3674 31.5688 21.3674 27.9385Z" clip-rule="evenodd" fill="#FFFFFF" fill-opacity="1.000000" fill-rule="evenodd"/>
	<path d="M31 25.48C34.04 25.48 36.51 27.95 36.51 31C36.51 34.04 34.04 36.51 31 36.51C27.95 36.51 25.49 34.04 25.49 31C25.49 27.95 27.95 25.48 31 25.48Z" fill="#FFFFFF" fill-opacity="1.000000" fill-rule="nonzero"/>
</svg>
