<svg width="62.000000" height="62.000000" viewBox="0 0 62 62" fill="none" xmlns="http://www.w3.org/2000/svg" xmlns:xlink="http://www.w3.org/1999/xlink">
	<desc>
			Created with Pixso.
	</desc>
	<defs/>
	<rect width="62.000000" height="62.000000" fill="#FFFFFF" fill-opacity="0"/>
	<path d="M24 0C10.7451 0 0 10.7451 0 24C0 37.2549 10.7451 48 24 48C37.2549 48 48 37.2549 48 24C48 10.7451 37.2549 0 24 0ZM34.0015 15.7495C35.103 16.0518 35.9707 16.9424 36.2651 18.0732C36.7998 20.123 36.7998 24.3999 36.7998 24.3999C36.7998 24.3999 36.7998 28.6768 36.2651 30.7266C35.9707 31.8579 35.103 32.7485 34.0015 33.0508C32.0054 33.6001 24 33.6001 24 33.6001C24 33.6001 15.9946 33.6001 13.998 33.0508C12.8965 32.7485 12.0293 31.8579 11.7349 30.7266C11.2002 28.6768 11.2002 24.3999 11.2002 24.3999C11.2002 24.3999 11.2002 20.123 11.7349 18.0732C12.0293 16.9424 12.8965 16.0518 13.998 15.7495C15.9946 15.2002 24 15.2002 24 15.2002C24 15.2002 32.0054 15.2002 34.0015 15.7495Z" clip-rule="evenodd" fill="#FFFFFF" fill-opacity="1.000000" fill-rule="evenodd"/>
	<path d="M27.9 37.19L27.9 26.86L36.16 32.03L27.9 37.19Z" fill="#FFFFFF" fill-opacity="1.000000" fill-rule="nonzero"/>
</svg>
